<svg width="512" height="512" viewBox="0 0 512 512" fill="none" xmlns="http://www.w3.org/2000/svg">
  <path d="M256 0C114.6 0 0 114.6 0 256s114.6 256 256 256s256-114.6 256-256S397.4 0 256 0zM256 464c-114.7 0-208-93.31-208-208S141.3 48 256 48s208 93.31 208 208S370.7 464 256 464z" fill="currentColor"/>
  <path d="M256 96c-88.4 0-160 71.6-160 160s71.6 160 160 160s160-71.6 160-160S344.4 96 256 96zM336 288H176c-8.8 0-16-7.2-16-16s7.2-16 16-16h160c8.8 0 16 7.2 16 16S344.8 288 336 288z" fill="currentColor"/>
</svg>